<svg width="24" height="24" viewBox="0 0 24 24" fill="none" xmlns="http://www.w3.org/2000/svg">
<path d="M11.7354 6.52155C11.3257 5.93246 10.5011 5.8252 9.95312 6.28913L4.43555 10.961C4.06648 11.2735 3.92575 11.7619 4.04004 12.2071C4.06776 12.5202 4.21277 12.8224 4.46875 13.0391L9.9873 17.711C10.5353 18.1747 11.36 18.0667 11.7695 17.4776C12.1308 16.9578 12.037 16.2454 11.5537 15.836L8.42383 13.1866H18.7705C19.4495 13.1864 19.9999 12.6361 20 11.9571C20 11.278 19.4496 10.7268 18.7705 10.7266H8.49219L11.5195 8.16315C12.0029 7.75373 12.0968 7.0414 11.7354 6.52155Z" fill="#1A1A1A"/>
</svg>
