<svg width="24" height="24" viewBox="0 0 24 24" fill="none" xmlns="http://www.w3.org/2000/svg">
<path d="M7.04994 1.86621C5.25404 1.86621 3.33963 2.38479 2.04181 3.64934C0.800252 4.85905 0.0636883 6.53398 0.0636883 8.33684C0.0636883 9.14439 0.101501 9.94308 0.337438 10.9393C0.68048 12.3883 1.14668 13.4671 1.79244 14.4943C2.52448 15.6595 3.45042 16.7227 4.63306 17.875C5.83976 19.0506 7.5039 20.3395 9.77806 21.4356L9.79681 21.445L11.9999 22.345L14.2031 21.445L14.2218 21.4356C16.4961 20.3395 18.1601 19.0507 19.3668 17.875C20.5495 16.7228 21.4752 15.6594 22.2074 14.4943C22.8529 13.4672 23.3191 12.3882 23.6624 10.9393C23.8983 9.94302 23.9362 9.14429 23.9362 8.33684C23.9362 6.53402 23.2015 4.85907 21.9599 3.64934C20.662 2.38485 18.7477 1.86621 16.9518 1.86621C15.9759 1.86621 14.8297 1.97684 13.8431 2.42684C13.1159 2.75844 12.549 3.33107 11.9999 3.87434C11.4509 3.33112 10.884 2.75846 10.1568 2.42684C9.17006 1.9769 8.02587 1.86621 7.04994 1.86621ZM7.04994 3.30621C7.89977 3.30621 8.89683 3.43481 9.56056 3.73746C10.1986 4.02841 10.9195 4.64807 11.4637 5.25621L11.9999 5.85621L12.5362 5.25621C13.0801 4.64821 13.8032 4.02843 14.4412 3.73746C15.1046 3.43487 16.102 3.30621 16.9518 3.30621C18.456 3.30621 20.0407 3.78993 20.9549 4.68059C21.9252 5.62593 22.4962 6.92409 22.4962 8.33684C22.4962 9.10294 22.4653 9.74023 22.2599 10.6075C21.9458 11.9331 21.5622 12.8167 20.9887 13.7293C20.3374 14.7657 19.4964 15.7384 18.3618 16.8437C17.2513 17.9257 15.7217 19.1143 13.5974 20.1381L11.9999 20.7887L10.4024 20.1381C8.27829 19.1143 6.74865 17.9258 5.63806 16.8437C4.50348 15.7383 3.66417 14.7657 3.01306 13.7293V13.7274C2.43938 12.8149 2.05377 11.9331 1.73994 10.6075C1.53454 9.74016 1.50369 9.10283 1.50369 8.33684C1.50369 6.92414 2.07656 5.62595 3.04681 4.68059C3.96083 3.79 5.54567 3.30621 7.04994 3.30621Z" fill="#868686"/>
</svg>
