<svg width="26" height="26" viewBox="0 0 26 26" fill="none" xmlns="http://www.w3.org/2000/svg">
<circle cx="13" cy="13" r="13" fill="#1E6FFE"/>
<path d="M11.3074 5.89098C11.9305 6.17518 12.5358 6.71051 13.0001 7.22936C13.4643 6.71051 14.0696 6.17518 14.6928 5.89098C15.3449 5.59356 16.1918 5.49878 16.9133 5.49878C18.2175 5.49878 19.6003 5.89498 20.4746 6.74669C21.3488 7.59839 21.8651 8.77397 21.8651 10.0448C21.8651 10.6666 21.8383 11.2337 21.6639 11.9701C21.4041 13.0667 21.0677 13.8419 20.5859 14.6086C20.0391 15.4786 19.3411 16.2835 18.4253 17.1757C17.5095 18.0679 16.248 19.0475 14.5097 19.8853L13.0001 20.5012L11.4903 19.8853C9.75202 19.0475 8.49048 18.0679 7.57468 17.1757C6.65891 16.2835 5.96092 15.4786 5.41429 14.6086C4.93236 13.8419 4.59587 13.0667 4.33628 11.9701C4.16186 11.2337 4.13493 10.6666 4.13493 10.0448C4.13493 8.77397 4.65141 7.59839 5.52553 6.74669C6.39965 5.89498 7.78246 5.49878 9.0867 5.49878C9.80824 5.49878 10.6551 5.59356 11.3074 5.89098Z" fill="white"/>
</svg>
